<?xml version="1.0" encoding="UTF-8"?>
<svg version="1.1" xmlns="http://www.w3.org/2000/svg" width="2048" height="2048">
<path d="M0 0 C675.84 0 1351.68 0 2048 0 C2048 675.84 2048 1351.68 2048 2048 C1372.16 2048 696.32 2048 0 2048 C0 1372.16 0 696.32 0 0 Z " fill="none" transform="translate(0,0)"/>
<path d="M0 0 C0.78431396 0.65476318 0.78431396 0.65476318 1.58447266 1.32275391 C15.37913782 12.86921855 28.32235989 25.24403114 41.0625 37.9375 C41.94301025 38.8133374 42.82352051 39.6891748 43.73071289 40.59155273 C48.13381586 45.00559718 52.39339315 49.48100179 56.45581055 54.21069336 C58.69694987 56.80758033 61.036977 59.30246029 63.375 61.8125 C67.64198604 66.4308677 71.67565887 71.18766951 75.62109375 76.0859375 C78.35905153 79.43982338 81.17219888 82.72189795 84 86 C88.3196209 91.01290176 92.55098085 96.08538509 96.72265625 101.22265625 C99.74485223 104.90838753 102.83147207 108.53744822 105.91870117 112.16870117 C108.77859495 115.53870316 111.59262982 118.94035256 114.375 122.375 C118.54312048 127.49924848 122.86295537 132.4801464 127.20703125 137.45483398 C130.34395272 141.05653534 133.39752099 144.70160652 136.375 148.4375 C140.76927677 153.86953955 145.52340995 158.93014432 150.33349609 163.99194336 C153.60803425 167.43797153 156.81967843 170.91960543 159.96484375 174.484375 C166.02877848 181.24829282 172.48001838 187.62950198 178.91137695 194.04174805 C181.06512522 196.19011866 183.21345226 198.34380694 185.36132812 200.49804688 C186.75228354 201.88834168 188.14354903 203.27832636 189.53515625 204.66796875 C190.480812 205.61666084 190.480812 205.61666084 191.4455719 206.58451843 C227.77026571 242.7218157 273.3717833 269.21552005 323 282 C323.86608887 282.22445801 324.73217773 282.44891602 325.62451172 282.68017578 C338.88139391 285.93629595 352.04639947 286.36080003 365.625 286.375 C366.84704636 286.37812698 366.84704636 286.37812698 368.09378052 286.38131714 C377.91781422 286.37846791 387.31709238 285.82566383 397 284 C397.73831055 283.88076172 398.47662109 283.76152344 399.23730469 283.63867188 C426.17237251 279.26652609 453.18917617 266.60293777 474 249 C474.50724609 248.57638184 475.01449219 248.15276367 475.53710938 247.71630859 C499.65925002 227.39287007 514.16321095 198.04161686 517.6875 166.8125 C518.70837586 152.19442649 518.1871765 138.30451521 515 124 C514.86078125 123.3301709 514.7215625 122.6603418 514.578125 121.97021484 C507.84804451 89.72970196 487.88589832 59.65679215 460.515625 41.265625 C423.45322489 17.11581412 378.27092639 4.8838636 334.11328125 4.83203125 C332.5849189 4.82703865 332.5849189 4.82703865 331.02568054 4.82194519 C328.87511644 4.81690937 326.7245446 4.81453582 324.57397461 4.81469727 C321.36623338 4.8125362 318.1588513 4.79441483 314.95117188 4.77539062 C296.94961838 4.72549531 278.91173452 5.50327273 261.1875 8.875 C260.2399585 9.04862061 259.29241699 9.22224121 258.31616211 9.40112305 C255.54066714 9.91783629 252.76989334 10.45413485 250 11 C249.21850586 11.15194824 248.43701172 11.30389648 247.63183594 11.46044922 C196.04072189 21.66813575 146.85237386 43.96165386 102 71 C103.36845025 67.96127857 104.94169314 65.76966554 107.23046875 63.35546875 C107.86919922 62.67806641 108.50792969 62.00066406 109.16601562 61.30273438 C109.83310547 60.60470703 110.50019531 59.90667969 111.1875 59.1875 C112.15913086 58.15786133 112.15913086 58.15786133 113.15039062 57.10742188 C119.08321385 50.84269245 125.06004901 44.67910868 131.609375 39.0546875 C133.40371339 37.5124947 135.18242209 35.95208625 136.953125 34.3828125 C156.41385465 17.24215492 177.86200735 2.96241185 200.49414062 -9.60546875 C202.72799092 -10.84862472 204.95041507 -12.10991203 207.171875 -13.375 C236.38794051 -29.72676411 270.20279561 -40.69889961 303 -47 C304.19818359 -47.24121582 305.39636719 -47.48243164 306.63085938 -47.73095703 C325.28436172 -51.38045086 343.62561934 -52.47478964 362.625 -52.5 C363.66052002 -52.50449158 364.69604004 -52.50898315 365.76293945 -52.51361084 C421.51234294 -52.61209629 476.69133462 -35.04815795 519 2 C519.54446777 2.47147461 520.08893555 2.94294922 520.64990234 3.42871094 C553.0385511 31.62494579 573.96704674 69.17477832 583 111 C583.20044922 111.92651367 583.40089844 112.85302734 583.60742188 113.80761719 C594.50987604 166.37174454 583.62848975 223.24279298 554.6159668 268.2800293 C541.56724327 287.89590756 525.43439339 304.68392451 506 318 C505.28924316 318.49064941 504.57848633 318.98129883 503.84619141 319.48681641 C485.6586938 331.89013314 464.95337308 342.71072933 443.625 348.5 C442.48442139 348.81191284 442.48442139 348.81191284 441.32080078 349.13012695 C435.54357236 350.66997646 429.73284686 351.99290504 423.875 353.1875 C423.12557129 353.3421875 422.37614258 353.496875 421.60400391 353.65625 C407.14405789 356.48129785 392.9461624 357.40582536 378.25 357.375 C376.91304077 357.37518127 376.91304077 357.37518127 375.54907227 357.37536621 C359.73857444 357.34501841 344.54590631 356.04022213 329 353 C328.2147998 352.85578613 327.42959961 352.71157227 326.62060547 352.56298828 C303.77322158 348.29365834 281.69468462 339.3619986 261 329 C260.14921875 328.57525391 259.2984375 328.15050781 258.421875 327.71289062 C227.02015314 311.7898477 199.27658628 289.35692255 173.60253906 265.48925781 C171.82911973 263.84119902 170.05115891 262.19810428 168.2734375 260.5546875 C150.65884487 244.23463466 150.65884487 244.23463466 143.6875 236.2109375 C140.06210715 232.03939927 136.30033298 228.01189791 132.5 224 C127.5434448 218.76751286 122.70687415 213.45857938 118 208 C117.26740967 207.15066895 117.26740967 207.15066895 116.52001953 206.28417969 C115.11474267 204.65013683 113.71295713 203.01317488 112.3125 201.375 C111.27089101 200.15750274 110.22922259 198.94005632 109.1875 197.72265625 C108.6615625 197.10793457 108.135625 196.49321289 107.59375 195.85986328 C106.02376312 194.02773092 104.45002569 192.19889523 102.875 190.37109375 C97.66032082 184.31531057 92.50012472 178.22691347 87.4609375 172.0234375 C84.40768551 168.27229934 81.32831793 164.54307134 78.25 160.8125 C73.54086162 155.10076676 68.85226732 149.37302843 64.1875 143.625 C63.64657715 142.95855469 63.1056543 142.29210937 62.54833984 141.60546875 C61.5082425 140.32377776 60.46820106 139.04204141 59.42822266 137.76025391 C52.8559375 129.66005288 46.20494761 121.63651164 39.44140625 113.69580078 C37.99800384 111.99765154 36.56118577 110.29409807 35.125 108.58984375 C23.89027131 95.3028519 11.9056051 82.81656246 -0.375 70.5 C-0.89114868 69.98117249 -1.40729736 69.46234497 -1.93908691 68.92779541 C-7.77587952 63.06801965 -13.65250476 57.31274541 -20 52 C-20.58185059 51.51144531 -21.16370117 51.02289062 -21.76318359 50.51953125 C-31.11228895 42.7605886 -40.82567903 35.63676417 -51 29 C-51.59184082 28.61247559 -52.18368164 28.22495117 -52.79345703 27.82568359 C-75.636729 13.05152367 -101.2056024 2.72070953 -128 -2 C-128.84691406 -2.14953125 -129.69382812 -2.2990625 -130.56640625 -2.453125 C-187.11707794 -12.00171003 -244.50321978 3.57197758 -290.97021484 36.53125 C-295.88837168 40.09002214 -300.67095293 43.79375752 -305.35839844 47.65087891 C-306.42413919 48.52673902 -307.49485587 49.39659207 -308.57128906 50.25927734 C-317.34936098 57.29985098 -325.34301427 65.13482769 -333.3125 73.0625 C-333.82455994 73.56929291 -334.33661987 74.07608582 -334.86419678 74.59823608 C-341.71054995 81.39009188 -348.04122458 88.39932368 -354 96 C-355.07664917 97.37200562 -355.07664917 97.37200562 -356.17504883 98.77172852 C-357.79203089 100.84132333 -359.40041819 102.9169433 -361 105 C-362 103 -362 103 -360.92578125 99.54296875 C-360.39487123 98.08862677 -359.85661418 96.63695362 -359.3125 95.1875 C-357.41610129 90.01279282 -355.62481887 84.86955137 -354.125 79.5625 C-339.02364522 29.74040738 -301.95691159 -11.68082288 -258 -38 C-257.35836914 -38.38430176 -256.71673828 -38.76860352 -256.05566406 -39.16455078 C-236.20223283 -50.84906612 -213.61543678 -58.13157002 -191 -62 C-189.78828125 -62.20753906 -188.5765625 -62.41507813 -187.328125 -62.62890625 C-116.60186885 -72.78337877 -53.1938045 -44.5794232 0 0 Z " fill="#1D1616" transform="translate(935,811)"/>
<path d="M0 0 C0.87606903 0.00182281 1.75213806 0.00364563 2.65475464 0.00552368 C16.7927141 0.05489469 30.56472124 0.77187008 44.5 3.3125 C45.8617334 3.54598145 45.8617334 3.54598145 47.25097656 3.78417969 C72.90713396 8.28636353 97.23180514 17.79810887 120.5 29.3125 C121.57677002 29.84157959 121.57677002 29.84157959 122.67529297 30.38134766 C144.971574 41.45514888 165.56791814 56.22860745 184.5 72.3125 C185.57019327 73.20847576 186.64051321 74.10430024 187.7109375 75 C200.92702581 86.12448231 213.32895787 98.06127329 225.5625 110.25 C226.44301025 111.1258374 227.32352051 112.0016748 228.23071289 112.90405273 C232.60340825 117.28761401 236.82792946 121.73268428 240.86206055 126.42944336 C243.60514758 129.58303261 246.50019493 132.5919858 249.375 135.625 C254.29167008 140.84851502 258.94695705 146.1647919 263.42578125 151.76953125 C265.54087596 154.36261347 267.74518096 156.840349 270 159.3125 C273.86533345 163.55901686 277.51398246 167.9426311 281.125 172.40625 C283.66664872 175.51642541 286.26589917 178.57155248 288.875 181.625 C293.17957459 186.67456821 297.30348478 191.84247287 301.37451172 197.08129883 C304.92351865 201.62873955 308.6168416 206.03243153 312.37060547 210.41137695 C315.73557705 214.35674324 318.94897902 218.40156845 322.125 222.5 C326.00578875 227.50100938 330.05748258 232.25443627 334.34765625 236.9140625 C336.51879022 239.33343865 338.54089841 241.82984564 340.5625 244.375 C346.47034892 251.67232559 353.00665788 258.37718386 359.47753906 265.17236328 C361.37571002 267.18097828 363.25133407 269.20747611 365.1171875 271.24609375 C373.18691458 280.05449462 381.60867723 288.33390213 390.5 296.3125 C391.06122559 296.81845703 391.62245117 297.32441406 392.20068359 297.84570312 C416.58923413 319.69392957 445.21468718 339.84348482 476.5 350.3125 C477.64855469 350.72757813 478.79710937 351.14265625 479.98046875 351.5703125 C489.66093438 354.97734677 499.43744829 357.35136757 509.5 359.3125 C510.31500977 359.49345215 511.13001953 359.6744043 511.96972656 359.86083984 C521.27130702 361.72214863 530.5626538 361.61529255 540.0078125 361.57324219 C542.86219658 361.56254797 545.71594782 361.57317288 548.5703125 361.5859375 C558.75321555 361.59390565 568.46047145 361.13879291 578.5 359.3125 C579.29760742 359.1877832 580.09521484 359.06306641 580.91699219 358.93457031 C639.46596637 349.6844155 691.58289857 309.85102286 728.3125 265.0625 C728.88830811 264.36447266 729.46411621 263.66644531 730.05737305 262.94726562 C730.60176025 262.27888672 731.14614746 261.61050781 731.70703125 260.921875 C732.1966333 260.32342773 732.68623535 259.72498047 733.19067383 259.10839844 C734.54192922 257.25498903 735.53403646 255.38899305 736.5 253.3125 C737.16 253.3125 737.82 253.3125 738.5 253.3125 C737.54571953 257.32481563 736.53754156 261.32090997 735.5 265.3125 C735.25636719 266.25222656 735.01273438 267.19195313 734.76171875 268.16015625 C727.49398625 293.75221902 714.85050831 317.71371575 699.5 339.3125 C699.07750977 339.90756348 698.65501953 340.50262695 698.21972656 341.11572266 C678.28485472 368.83338694 652.06014277 388.60249711 621.5 403.3125 C620.75814453 403.67214844 620.01628906 404.03179688 619.25195312 404.40234375 C583.43854484 421.40432404 540.08956097 424.45957911 501.5 417.3125 C500.74428711 417.17859863 499.98857422 417.04469727 499.20996094 416.90673828 C452.0713423 408.34457175 412.7132746 382.66882727 376.35400391 352.82568359 C374.70807651 351.48232594 373.04834973 350.1559154 371.38671875 348.83203125 C365.84054942 344.39980258 360.78145492 339.71450245 355.8203125 334.63671875 C353.83844549 332.65151526 351.82575977 330.81170546 349.6875 329 C341.55343579 322.02322134 333.97270895 314.23357113 327.0390625 306.0703125 C325.4305945 304.23322976 323.74161132 302.52342213 322 300.8125 C318.28803875 297.14959551 314.8982073 293.26564391 311.5 289.3125 C310.53050654 288.19482769 309.56040228 287.07768505 308.58984375 285.9609375 C305.22064197 282.08323487 301.85861132 278.19937775 298.5 274.3125 C297.96616699 273.6947168 297.43233398 273.07693359 296.88232422 272.44042969 C291.08590276 265.72499757 285.35948277 258.96736254 279.76953125 252.078125 C277.25900114 249.01882153 274.69483808 246.00940379 272.125 243 C268.3239367 238.54179923 264.654299 234.00316788 261.0625 229.375 C255.90452935 222.73726857 250.4728051 216.36665863 244.96875 210.01513672 C242.62516319 207.29835241 240.31309436 204.5552404 238 201.8125 C237.08871676 200.7355289 236.17725772 199.65870653 235.265625 198.58203125 C233.87326317 196.93736555 232.48238584 195.29154796 231.09570312 193.64208984 C223.47002374 184.57548133 215.50643679 175.88899333 207.359375 167.28955078 C205.5365083 165.35131883 203.73349988 163.39672139 201.9375 161.43359375 C194.59301626 153.39262801 194.59301626 153.39262801 186.5546875 146.05859375 C183.96732294 143.85982577 181.53100044 141.51886153 179.0625 139.1875 C171.66206082 132.31387174 163.60838539 126.31734961 155.5 120.3125 C154.90993164 119.8705127 154.31986328 119.42852539 153.71191406 118.97314453 C131.24305673 102.17724739 107.06646255 89.29793787 80.5 80.3125 C79.36433594 79.92449219 78.22867187 79.53648437 77.05859375 79.13671875 C71.04956569 77.1888611 64.96121038 75.62137846 58.8125 74.1875 C58.15499756 74.02870361 57.49749512 73.86990723 56.82006836 73.70629883 C42.53345774 70.52125757 27.83516609 69.89807446 13.25 69.9375 C12.44673279 69.93837616 11.64346558 69.93925232 10.81585693 69.94015503 C-2.32953087 69.98719236 -14.742504 70.94365863 -27.5 74.3125 C-28.40218262 74.5379248 -29.30436523 74.76334961 -30.23388672 74.99560547 C-68.23637176 84.67195127 -103.24711276 106.36453547 -123.8125 140.25 C-140.98358278 169.33887467 -146.76749044 203.19997645 -138.8828125 236.3671875 C-133.67130175 255.86957721 -125.0447201 275.16800981 -111.5 290.3125 C-110.80390625 291.1271875 -110.1078125 291.941875 -109.390625 292.78125 C-101.15464164 302.24386918 -92.07085229 310.53937965 -81.5 317.3125 C-80.41332031 318.00988281 -79.32664062 318.70726562 -78.20703125 319.42578125 C-14.94703731 359.11153631 65.51288071 360.09263718 136.2265625 344.0234375 C144.45588519 342.11250083 152.48561537 339.98941573 160.5 337.3125 C161.51352539 336.98443359 162.52705078 336.65636719 163.57128906 336.31835938 C199.72247228 324.58643234 233.92184874 308.18651232 266.40063477 288.48901367 C268.5 287.3125 268.5 287.3125 271.5 286.3125 C269.87075219 290.27195108 267.14380211 293.11597564 264.25 296.1875 C263.72567383 296.74904785 263.20134766 297.3105957 262.66113281 297.88916016 C258.5899553 302.22002183 254.44091621 306.47262918 250.25 310.6875 C249.69666992 311.24550293 249.14333984 311.80350586 248.57324219 312.37841797 C207.78019168 353.01466491 154.77959923 382.83129123 99.5 398.3125 C98.30761719 398.64765625 97.11523438 398.9828125 95.88671875 399.328125 C68.72102472 406.76469905 42.07873558 409.69690182 14 409.75 C12.43397034 409.75898819 12.43397034 409.75898819 10.83630371 409.76815796 C-8.03135382 409.84025256 -26.68955158 408.24408923 -45.125 404.0625 C-46.5325354 403.74671997 -46.5325354 403.74671997 -47.96850586 403.42456055 C-91.93825842 393.17441858 -137.12394207 368.09971659 -165.5 332.3125 C-166.26441406 331.3740625 -167.02882813 330.435625 -167.81640625 329.46875 C-174.18338499 321.5263348 -179.49512772 313.1644523 -184.5 304.3125 C-184.84272949 303.71743652 -185.18545898 303.12237305 -185.53857422 302.50927734 C-211.93890008 256.4698388 -218.29145765 200.63555407 -204.94140625 149.4765625 C-201.09568663 135.43527627 -196.53147329 122.02662895 -189.54150391 109.22753906 C-188.48576911 107.28633331 -187.46666778 105.32868629 -186.44921875 103.3671875 C-178.34091433 88.03836292 -167.50096549 74.75726082 -155.5 62.3125 C-154.77683594 61.53777344 -154.05367187 60.76304687 -153.30859375 59.96484375 C-139.19059055 45.2228404 -121.46868367 33.77037857 -103.5 24.3125 C-102.86175293 23.9736377 -102.22350586 23.63477539 -101.56591797 23.28564453 C-70.38685937 6.98406477 -34.9674873 -0.15158295 0 0 Z " fill="#1D1616" transform="translate(737.5,858.6875)"/>
<path d="M0 0 C2.19867206 0.00951298 4.3973202 0.01433107 6.5960083 0.01854706 C27.90561091 0.07365188 48.92882992 0.677044 69.99597168 4.11748505 C72.15371959 4.46659625 74.31360522 4.79893872 76.47442627 5.12847137 C100.33548551 8.78842388 123.83613914 13.50525788 146.79718018 21.075737 C151.63886205 22.6688559 156.53442197 24.00234082 161.46514893 25.294487 C165.69935971 26.66260549 169.73501833 28.36598471 173.83013916 30.10186005 C176.87821052 31.38240799 179.94176223 32.60765429 183.01983643 33.81401825 C208.51157936 43.87660135 232.96854242 55.58895878 256.39776611 69.84624481 C258.89357239 71.36297691 261.40139502 72.8572023 263.91436768 74.34526825 C274.32528269 80.54936413 284.23317871 87.32152203 294.03155518 94.44683075 C294.8173999 95.01337372 295.60324463 95.57991669 296.41290283 96.16362762 C305.58726176 102.78071854 314.56813259 109.50710521 323.10968018 116.9272995 C325.95079835 119.37719418 328.85196039 121.7289642 331.78155518 124.07183075 C336.10751711 127.58785206 340.034924 131.34290885 343.92218018 135.3335495 C345.87080345 137.28578133 347.87246146 139.09383971 349.96905518 140.88433075 C356.85216517 146.80764453 363.17748233 153.30555763 369.07061768 160.2085495 C371.07533041 162.4967973 373.14912851 164.71160405 375.23516846 166.92559052 C380.93769652 172.99634307 386.19907178 179.27962147 391.26983643 185.88433075 C393.07715029 188.23684989 394.92394502 190.54404275 396.82452393 192.82183075 C406.15999537 204.06285723 414.10524512 216.18658788 422.03155518 228.44683075 C422.54025146 229.23332001 423.04894775 230.01980927 423.57305908 230.83013153 C437.59834504 252.63240144 450.17933509 275.72164925 460.46905518 299.50933075 C460.85255127 300.3893576 461.23604736 301.26938446 461.63116455 302.1760788 C461.96825439 302.9782785 462.30534424 303.78047821 462.65264893 304.606987 C462.94583008 305.30445038 463.23901123 306.00191376 463.54107666 306.72051239 C464.03155518 308.44683075 464.03155518 308.44683075 463.03155518 310.44683075 C462.58167236 309.97374481 462.13178955 309.50065887 461.66827393 309.013237 C456.14833317 303.33842816 450.23689618 298.35357059 444.03155518 293.44683075 C443.08925049 292.68757294 442.1469458 291.92831512 441.17608643 291.1460495 C426.45596341 279.51086818 410.65159389 269.15639059 394.03155518 260.44683075 C393.05243164 259.93346161 393.05243164 259.93346161 392.05352783 259.40972137 C387.42063936 257.00120681 382.74329441 254.6967188 378.03155518 252.44683075 C376.86237549 251.8847995 375.6931958 251.32276825 374.48858643 250.74370575 C353.70804756 241.06308465 331.91493029 234.43735908 309.29864502 230.86064911 C307.03155518 230.44683075 307.03155518 230.44683075 304.03155518 229.44683075 C291.22729534 227.60778044 278.50188745 227.12871468 265.58062744 227.18608856 C262.73136945 227.19678452 259.88274712 227.18612947 257.0335083 227.17339325 C240.19057975 227.1594654 223.13823426 227.84481789 206.65655518 231.57183075 C205.80190674 231.75358856 204.9472583 231.93534637 204.06671143 232.122612 C202.0525228 232.55260732 200.04157198 232.99773806 198.03155518 233.44683075 C198.03155518 232.78683075 198.03155518 232.12683075 198.03155518 231.44683075 C199.67364502 230.09331512 199.67364502 230.09331512 201.99249268 228.54058075 C202.84746338 227.96646454 203.70243408 227.39234833 204.58331299 226.80083466 C205.98081787 225.88310272 205.98081787 225.88310272 207.40655518 224.94683075 C208.83499756 224.0039621 208.83499756 224.0039621 210.29229736 223.04204559 C218.96910034 217.37830215 227.82421634 212.19552263 237.03155518 207.44683075 C237.70009521 207.09958954 238.36863525 206.75234833 239.05743408 206.39458466 C258.85609985 196.24552577 280.72424509 188.76243958 302.44952393 184.060112 C304.99853085 183.55851606 304.99853085 183.55851606 307.03155518 182.44683075 C300.39636955 175.55257063 293.54589121 169.37293196 286.03155518 163.44683075 C284.97250483 162.59713912 283.91392635 161.74685908 282.85577393 160.8960495 C235.99645356 123.42230479 181.38195929 92.58096996 123.03155518 77.44683075 C121.1892876 76.96243278 119.34702661 76.47800962 117.50488281 75.99314117 C114.09834676 75.09794399 110.68998848 74.20977138 107.28155518 73.32183075 C106.30430481 73.06636978 106.30430481 73.06636978 105.30731201 72.80574799 C92.65098735 69.50486972 80.03776075 66.45893993 67.03155518 64.94683075 C66.01577393 64.82718964 64.99999268 64.70754852 63.95343018 64.58428192 C61.77156607 64.33081809 59.58925839 64.08114759 57.40655518 63.83501434 C54.00744866 63.44405808 50.61383163 63.01812012 47.21905518 62.591362 C5.14721574 57.56894017 -38.53541557 59.60651708 -79.96844482 68.44683075 C-80.95755859 68.65243622 -81.94667236 68.85804169 -82.96575928 69.06987762 C-96.84666556 71.9768737 -110.39686963 75.25656917 -123.84344482 79.76177216 C-126.55912856 80.63725568 -129.30162607 81.38491641 -132.05413818 82.13457489 C-175.03934931 93.98599848 -219.21148901 117.06166371 -254.4039917 144.24712372 C-256.93604353 146.18883762 -259.52177782 148.05805459 -262.09344482 149.94683075 C-267.5158329 154.02271977 -272.6785225 158.35599677 -277.82391357 162.7710495 C-280.61579304 165.16251355 -283.47068697 167.4653804 -286.34344482 169.75933075 C-291.07182685 173.60768894 -295.56710242 177.67318941 -300.03094482 181.82183075 C-300.6869165 182.42938202 -301.34288818 183.03693329 -302.01873779 183.6628952 C-302.63249268 184.23870331 -303.24624756 184.81451141 -303.87860107 185.40776825 C-304.4265332 185.92129852 -304.97446533 186.4348288 -305.53900146 186.96392059 C-307.19507334 188.59384917 -307.19507334 188.59384917 -308.96844482 191.44683075 C-307.88224854 191.41565155 -306.79605225 191.38447235 -305.67694092 191.35234833 C-294.37392188 191.12978548 -283.71346496 192.19087185 -272.59344482 194.13433075 C-270.95673702 194.4119018 -269.32001815 194.68940762 -267.68328857 194.96685028 C-244.64080533 198.92821981 -223.06050937 205.17247612 -201.96844482 215.44683075 C-201.96844482 215.77683075 -201.96844482 216.10683075 -201.96844482 216.44683075 C-202.99554565 216.45299408 -202.99554565 216.45299408 -204.043396 216.45928192 C-232.17012778 216.74848497 -260.93972283 219.28648454 -287.96844482 227.44683075 C-289.32780127 227.84012406 -290.68717609 228.23335384 -292.04656982 228.62651825 C-296.05166403 229.81066278 -300.01223254 231.10945281 -303.96844482 232.44683075 C-304.67195068 232.68063446 -305.37545654 232.91443817 -306.10028076 233.15532684 C-341.73287823 245.13021616 -373.69854736 264.88203125 -401.96844482 289.44683075 C-402.79860107 290.1635495 -403.62875732 290.88026825 -404.48406982 291.61870575 C-415.91344539 301.6856392 -426.57831646 312.45202014 -435.96844482 324.44683075 C-436.84817359 325.50539072 -437.73117143 326.56123976 -438.61688232 327.6147995 C-456.64880594 349.25126094 -470.3876801 373.88967201 -483.96844482 398.44683075 C-484.29844482 398.44683075 -484.62844482 398.44683075 -484.96844482 398.44683075 C-478.38485331 323.3938875 -433.65686571 245.93026224 -386.96844482 188.44683075 C-386.24785889 187.55093231 -385.52727295 186.65503387 -384.78485107 185.731987 C-380.4356257 180.35764091 -375.96937563 175.13175698 -371.30438232 170.028862 C-370.06523429 168.65916827 -368.83096555 167.28424284 -367.6383667 165.8738327 C-361.98875901 159.23199045 -355.8164131 153.10871571 -349.65447998 146.94756317 C-347.731483 145.02238373 -345.81663908 143.08934044 -343.90203857 141.15581512 C-337.62109521 134.84687486 -331.31863752 128.82020728 -324.30780029 123.31865692 C-321.88089557 121.37677856 -319.61212444 119.32030872 -317.34344482 117.19683075 C-296.61983045 98.37206256 -272.14595719 82.47885116 -247.96844482 68.44683075 C-247.13844971 67.96343231 -246.30845459 67.48003387 -245.45330811 66.981987 C-206.41242718 44.32994395 -165.43532005 27.56379051 -121.96844482 15.44683075 C-120.51897461 15.03521698 -120.51897461 15.03521698 -119.04022217 14.61528778 C-106.11847198 10.984624 -93.07274712 8.44688581 -79.84344482 6.25933075 C-78.76827606 6.07814697 -78.76827606 6.07814697 -77.67138672 5.89330292 C-51.84636852 1.58752999 -26.13513036 -0.11855238 0 0 Z " fill="#1D1616" transform="translate(1020.9684448242188,486.5531692504883)"/>
<path d="M0 0 C1.5620849 3.1241698 0.20757238 5.96955971 -0.6328125 9.20703125 C-0.91435432 10.31675545 -0.91435432 10.31675545 -1.20158386 11.44889832 C-1.83150387 13.90650091 -2.47606308 16.35985291 -3.125 18.8125 C-3.34763519 19.65756104 -3.57027039 20.50262207 -3.7996521 21.37329102 C-16.50985818 69.26346146 -36.27199609 114.66723831 -62 157 C-62.51949219 157.85706543 -63.03898437 158.71413086 -63.57421875 159.59716797 C-70.82072803 171.48451691 -78.66944375 182.84903643 -87 194 C-87.54833496 194.73524902 -88.09666992 195.47049805 -88.66162109 196.22802734 C-95.00744252 204.70589568 -101.53137899 212.97919483 -108.44140625 221.00390625 C-110.91324583 223.89841153 -113.30538067 226.84401283 -115.6875 229.8125 C-118.96105207 233.83879399 -122.40814557 237.52084599 -126.12890625 241.1328125 C-127.87740824 242.87766417 -129.47080702 244.67514904 -131.0625 246.5625 C-138.68926538 255.41938883 -147.20362609 263.87736334 -156.13671875 271.4140625 C-158.35471185 273.30191407 -160.48242155 275.27702792 -162.625 277.25 C-168.21133197 282.28449066 -174.09167568 286.87965472 -180.04003906 291.47265625 C-182.06010964 293.04684179 -184.05859708 294.64554157 -186.0546875 296.25 C-227.60334584 329.45074296 -275.38096898 354.71727565 -325.1940918 372.94213867 C-327.40120336 373.77424642 -329.54713767 374.65164657 -331.6953125 375.62109375 C-336.05736356 377.44119307 -340.5112848 378.68074117 -345.0625 379.9375 C-346.95710207 380.46719469 -348.85163342 380.99714237 -350.74609375 381.52734375 C-351.6572998 381.78112793 -352.56850586 382.03491211 -353.50732422 382.29638672 C-356.5588278 383.1577416 -359.58984128 384.08292929 -362.625 385 C-373.94081975 388.22541181 -385.49206315 390.5745909 -397 393 C-397.91749023 393.19625977 -398.83498047 393.39251953 -399.78027344 393.59472656 C-406.15786275 394.93750521 -412.55661855 396.02396813 -419 397 C-420.17336914 397.18336914 -421.34673828 397.36673828 -422.55566406 397.55566406 C-443.5800419 400.70054063 -464.53838871 401.37720827 -485.76824951 401.37516785 C-487.77982662 401.37500268 -489.7914033 401.37772409 -491.80297852 401.38049316 C-519.47569046 401.37618197 -546.39487917 399.02026083 -573.625 394.1875 C-574.36667419 394.05616669 -575.10834839 393.92483337 -575.87249756 393.78952026 C-588.03053568 391.62555841 -600.07072584 389.21802256 -612 386 C-613.3610083 385.63551758 -613.3610083 385.63551758 -614.74951172 385.26367188 C-685.15041244 366.15810521 -750.42891523 331.12904971 -806 284 C-806.6388916 283.46020508 -807.2777832 282.92041016 -807.93603516 282.36425781 C-824.88207454 268.00616624 -841.98862207 252.88796117 -856.37109375 235.91015625 C-858.32237716 233.6219606 -860.34817687 231.4090094 -862.375 229.1875 C-866.63356534 224.45655599 -870.71751444 219.61544355 -874.68652344 214.63916016 C-875.59817556 213.50145898 -876.51594415 212.36864268 -877.43847656 211.23974609 C-902.83825103 180.12300652 -923.91020461 144.60716609 -941.1875 108.4375 C-941.71283325 107.34199829 -941.71283325 107.34199829 -942.2487793 106.22436523 C-944.56326367 101.26557816 -946.36923972 96.22163495 -948 91 C-944.1466688 93.33227941 -940.92377544 95.92968704 -937.625 99 C-926.4254429 109.22568257 -913.78113357 117.87871808 -901 126 C-900.27393555 126.46374023 -899.54787109 126.92748047 -898.79980469 127.40527344 C-866.23249398 148.03720917 -830.83725225 161.05313606 -793 168 C-792.10152344 168.19335938 -791.20304688 168.38671875 -790.27734375 168.5859375 C-759.51889093 174.9881494 -724.53602163 171.95909199 -694.06640625 165.76489258 C-688.04418508 164.54104877 -682.12007591 163.57095048 -676 163 C-686.16864678 173.64739663 -698.99872262 181.30471544 -712 188 C-712.87849609 188.45487793 -713.75699219 188.90975586 -714.66210938 189.37841797 C-766.64223814 216 -766.64223814 216 -791 216 C-791 216.66 -791 217.32 -791 218 C-790.41347656 218.25652344 -789.82695313 218.51304687 -789.22265625 218.77734375 C-786.79687071 220.11173896 -785.32471299 221.54485328 -783.4375 223.5625 C-779.44613242 227.66515107 -775.15432648 231.22437306 -770.69140625 234.80078125 C-768.37482986 236.69371668 -766.18659039 238.64871095 -764 240.6875 C-749.38910925 253.75226475 -732.4078467 264.37994615 -716 275 C-715.31019043 275.44682129 -714.62038086 275.89364258 -713.90966797 276.35400391 C-674.73370736 301.44469829 -630.16437617 318.48157773 -585 329 C-583.53312744 329.34901367 -583.53312744 329.34901367 -582.03662109 329.70507812 C-549.40467872 337.41938139 -516.87493007 340.16197427 -483.4375 340.1875 C-482.67698334 340.18858765 -481.91646667 340.18967529 -481.13290405 340.1907959 C-450.45319594 340.18579669 -420.85880121 335.70637557 -391 329 C-389.94071289 328.76442383 -388.88142578 328.52884766 -387.79003906 328.28613281 C-342.41838444 317.97929514 -297.11408785 298.06269335 -258 273 C-257.34080566 272.57944336 -256.68161133 272.15888672 -256.00244141 271.72558594 C-239.58181847 261.17931248 -223.94082319 249.54544007 -209 237 C-208.05495605 236.21157715 -208.05495605 236.21157715 -207.09082031 235.40722656 C-197.19007382 227.11834812 -188.01217583 218.24227394 -179 209 C-179.97533691 208.84442627 -180.95067383 208.68885254 -181.95556641 208.52856445 C-215.72471077 203.11992884 -247.85993608 196.78366671 -279 182 C-279 181.67 -279 181.34 -279 181 C-278.00371582 180.98018066 -277.00743164 180.96036133 -275.98095703 180.93994141 C-250.40888674 180.58633202 -250.40888674 180.58633202 -225 178 C-224.12649902 177.87786133 -223.25299805 177.75572266 -222.35302734 177.62988281 C-206.49157393 175.4028625 -191.29155401 171.74453794 -176 167 C-175.22108398 166.76055664 -174.44216797 166.52111328 -173.63964844 166.27441406 C-142.22857018 156.43256189 -113.85802829 139.38758927 -89 118 C-87.90171875 117.06800781 -87.90171875 117.06800781 -86.78125 116.1171875 C-73.88985055 104.85928729 -61.39001938 92.61639382 -51 79 C-49.905639 77.61951135 -48.8090847 76.24075997 -47.7109375 74.86328125 C-29.21561566 51.55987764 -14.59219149 25.87153883 0 0 Z " fill="#1D1616" transform="translate(1513,1142)"/>
<path d="M0 0 C675.84 0 1351.68 0 2048 0 C2048 675.84 2048 1351.68 2048 2048 C1372.16 2048 696.32 2048 0 2048 C0 1372.16 0 696.32 0 0 Z M4 4 C3.835 257.23375 3.67 510.4675 3.5 771.375 C3.44779297 850.33958496 3.39558594 929.30416992 3.34179688 1010.66162109 C3.2950366 1083.54914844 3.2950366 1083.54914844 3.24865723 1156.43667603 C3.22852322 1188.06273453 3.20761741 1219.6887922 3.18615723 1251.31484985 C3.00824951 1515.87667963 3 1780.43800833 3 2045 C676.53 2045 1350.06 2045 2044 2045 C2044 1371.47 2044 697.94 2044 4 C1370.8 4 697.6 4 4 4 Z " fill="none" transform="translate(0,0)"/>
</svg>
